<svg width="20" height="19" viewBox="0 0 20 19" fill="none" xmlns="http://www.w3.org/2000/svg">
<path d="M17.0001 10.9999V13.9999H20.0001V15.9999H16.9991L17.0001 18.9999H15.0001L14.9991 15.9999H12.0001V13.9999H15.0001V10.9999H17.0001ZM18.2426 1.75736C20.505 4.0244 20.5829 7.636 18.4795 9.992L17.06 8.574C18.3901 7.0499 18.3201 4.65987 16.827 3.1701C15.3244 1.67092 12.9076 1.60701 11.337 3.01688L10.0019 4.21524L8.6661 3.01781C7.09098 1.60597 4.67506 1.66808 3.17157 3.17157C1.68183 4.66131 1.60704 7.0473 2.97993 8.6232L11.412 17.069L9.9999 18.485L1.52138 9.993C-0.582952 7.637 -0.504292 4.01901 1.75736 1.75736C4.02157 -0.506849 7.64519 -0.583129 10.001 1.52853C12.35 -0.579999 15.98 -0.509999 18.2426 1.75736Z" fill="#212121" fill-opacity="0.74"/>
</svg>
